<svg xmlns="http://www.w3.org/2000/svg" viewBox="0 0 1431.619 856.234"><defs><linearGradient id="a" x1="0" x2="1431.619" y1="428.117" y2="428.117" gradientUnits="userSpaceOnUse"><stop offset=".003" stop-color="#73a2fe"/><stop offset=".267" stop-color="#6e79ff"/><stop offset=".524" stop-color="#8156fe"/><stop offset=".998" stop-color="#883cf8"/></linearGradient><linearGradient id="b" x1="601.612" x2="5.912" y1="644.91" y2="639.603" gradientUnits="userSpaceOnUse"><stop offset=".003" stop-color="#e46af5"/><stop offset=".55" stop-color="#988af2"/><stop offset=".999" stop-color="#59affa"/></linearGradient><linearGradient id="c" x1="653.792" x2="1431.619" y1="415.2" y2="415.2" gradientUnits="userSpaceOnUse"><stop offset=".003" stop-color="#e46af5"/><stop offset=".337" stop-color="#9690fa"/><stop offset=".525" stop-color="#6fa4fa"/><stop offset=".997" stop-color="#36c0fe"/></linearGradient></defs><path d="M0 0h1431.619v856.234H0z" style="fill:url(#a)"/><path d="M708.36 856.234H19.91c-10.95 0-19.91-8.96-19.91-19.91v-413.28c32.76 4.8 90.54 14.63 147.72 30.96 86.78 24.8 241.06 112.96 384.32 201.12s176.32 201.11 176.32 201.11Z" style="fill:url(#b)"/><path d="M1431.619 19.91V830.4c-78.85-17.56-231.98-77.28-366.36-154.02-152.19-86.92-279.93-196.07-313.18-228.13-66.91-64.51-102.09-119.05-97.96-194.2 4.14-75.15 60.02-147.65 60.02-147.65L816.519 0h595.19c10.95 0 19.91 8.96 19.91 19.91Z" style="fill:url(#c)"/></svg>