<?xml version="1.0" encoding="UTF-8"?>
<svg id="Layer_2" xmlns="http://www.w3.org/2000/svg" version="1.1" viewBox="0 0 300 500">
  <!-- Generator: Adobe Illustrator 29.2.1, SVG Export Plug-In . SVG Version: 2.1.0 Build 116)  -->
  <defs>
    <style>
      .st0 {
        fill: #22c55e;
      }

      .st1 {
        fill: #16a34a;
      }
    </style>
  </defs>
  <path class="st1" d="M85.976,415.963c10.332-1.779,17.317,4.987,18.321,15.245.524,5.353.726,23.936-.57,28.527-3.463,12.269-23.027,13.313-28.206,1.826-1.817-4.029-2.471-18.328-2.28-23.339.348-9.145,2.355-20.47,12.735-22.258Z"/>
  <path class="st1" d="M209.293,425.646c7.897-.797,13.936,3.858,15.821,11.6,2.008,8.247,1.608,20.727.736,29.264-1.744,17.091-28.133,17.725-30.175-.882-.717-6.53-.57-24.386,1.457-30.292,1.859-5.416,6.561-9.124,12.16-9.689Z"/>
  <path class="st1" d="M299.839,144.882c-49.626-26.822-110.338-6.8-135.347,44.281-1.989,4.062-2.954,9.666-5.879,12.958v-35.752C213.071,124.362,209.51,35.566,150.429,0c-42.957,25.163-59.394,80.387-39.376,126.798,6.285,14.571,17.033,29.815,30.32,38.247v37.076l-8.788-18.807C106.41,136.12,46.917,119.455.146,144.882c-1.257,17.955,5.808,34.682,12.81,50.597.492,77.374-1.093,155.019.799,232.23,6.19,13.996,24.368,6.845,28.769-5.051l.803-132.475c2.522-18.997,28.831-19.225,30.799.665,2.752,27.805-2.447,60.291-.025,88.302,1.608,18.594,27.945,17.419,30.13,1.653,1.524-10.995-4.282-28.319,7.562-34.628,9.772-5.205,21.703-.065,22.718,11.717,3.402,39.519-3.831,85.238-.027,124.497,2.314,23.883,28.599,22.222,30.928,2.559l.076-177.357c3.104-15.952,26.286-16.475,29.983-.651,2.255,27.22-2.291,57.744.174,84.567,1.777,19.343,28.342,17.767,30.223,1.752,1.877-15.989-1.425-35.726-.05-52.134,1.863-22.226,29.895-21.254,31.048.046l.415,103.739c4.222,13.288,25.236,13.171,29.097-.277l.649-249.156c7.113-15.902,14.133-32.641,12.812-50.595Z"/>
  <path class="st0" d="M286.398,153.874c-.517,4.767-1.276,9.304-2.543,13.93-3.879,14.133-13.74,30.102-24.196,40.104-9.034,8.66-21.498,15.572-33.299,19.306-.862.274-1.724.521-2.603.75-.009,0-.026.009-.035.009-3.439.918-6.982,1.563-10.465,2.189-1.655.194-3.258.318-4.827.388-.586-.247-1.215-.344-1.905-.256-.017.106-.026.212-.035.3-1.888.035-3.724,0-5.5-.071-.552-.327-1.129-.309-1.689-.071-2.681-.132-5.232-.3-7.689-.38h-.009c-6.086-.574-12.016-1.942-17.731-4.167-.069-.027-.103-.044-.103-.044l24.92-14.627c.586-.397,1.172-.795,1.75-1.192l.043-.026c15.637-10.655,30.799-22.043,43.962-35.787-4.793-.3-11.154,3.558-15.843,5.844-20.946,10.222-40.738,22.969-60.003,36.087,1.672-8.66,4.793-17.073,9.025-24.735,13.887-25.141,38.609-42.911,67.261-44.994,13.542-.98,29.92-.177,41.514,7.442Z"/>
  <path class="st0" d="M155.169,150.916c.903-28.982-1.205-57.76-4.319-86.502-2.255-.201-1.428-.116-1.691,1.325-4.269,23.41-6.085,51.239-5.236,75.066.116,3.267,1.537,6.62.893,10.111-1.493.398-1.723-.634-2.587-1.314-34.235-26.927-33.861-89.954-5.998-121.835,1.349-1.544,12.491-11.867,13.374-11.956,2.236-.224,10.935,8.431,12.898,10.627,28.024,31.347,29.153,79.287,4.208,112.915-2.324,3.134-5.986,7.914-8.956,10.249-.865.68-1.094,1.712-2.587,1.314Z"/>
  <path class="st0" d="M131.02,216.245c-24.925-16.33-50.474-31.792-77.562-44.138-.466,1.948,1.087,1.964,1.971,2.827,8.446,8.243,20.433,17.899,29.973,24.918,12.802,9.42,26.583,17.61,40.452,25.231,1,1.487-9.893,3.969-10.993,4.177-50.053,9.433-95.829-25.1-101.931-76.568,7-1.058,14.166-5.257,21.193-6.115,35.582-4.343,71.127,12.138,88.035,44.764,1.536,2.963,9.837,23.637,8.861,24.903Z"/>
</svg>