 
<svg id="Layer_1" xmlns="http://www.w3.org/2000/svg" version="1.1" viewBox="0 0 400 500">
  
  <path d="M195.091,132.919c-3.056-9.469-9.775-18.006-8.946-28.376,1.722-14.968,4.693-29.771,3.377-45.119-.189-10.636-.547-20.402-1.692-29.199-.833-9.215-5.008-21.985,4.742-27.531,10.455-5.284,30.831-3.468,31.391,11.545-1.577,19.549-5.735,39.516-4.264,59.574.59,14.187,5.805,28.235,2.227,42.359-5.053,13.021-9.075,26.486-10.846,40.899-.841,10.067-3.843,21.854-12.139,27.549-40.781,21.715-121.97,51.434-172.068,79.718-17.172,14.142-17.988,63.105.654,77.666,7.938-.407,7.627-11.43,12.082-17.375,10.41-20.447,28.435-15.467,47.632-15.881,71.484.321,222.779-.742,260.194.298,18.778,6.788,22.018,32.349,22.213,50.753,1.816,18.359-13.766,31.143-15.941,48.151-.432,11.898.924,27.674-1.716,38.306-7.215,21.864-10.481-13.667-11.775-19.487-4.695-15.178-10.466,3.488-9.895,10.393-1.094,17.361.29,46.364-4.739,57.751-5.967,12.821-13.938-1.462-13.738-11.322-3.482-22.322,7.061-55.494-7.705-74.164-14.044-13.534-42.654-13.124-57.093-3.171-7.192,5.487-7.415,15.674-10.361,23.52-2.671,7.924-8.23,10.373-12.441,1.687-4.626-8.236-5.568-32.676-19.981-25.661-13.017,8.727-10.845,26.668-11.224,42.623-.712,7.984,1.623,21.075-6.723,24.791-4.744.317-8.192-5.773-9.186-10.181-3.615-18.498,5.121-43.826-13.218-56.888-13.869-10.003-37.497-8.842-49.092,3.817-7.483,7.4-6.642,23.293-14.716,29.143-9.33,2.297-11.033-37.066-22.415-18.091-7.685,10.397,1.747,75.592-14.869,68.427-10.946-11.903,3.847-56.25-6.528-77.675-3.253-9.788-10.128-17.946-15.374-26.552-4.79-7.66-6.968-16.141-13.318-22.593C5.617,345.41-1.9,327.049.396,298.463c1.415-34.048,11.907-43.998,41.958-57.681,29.373-14.631,61.542-28.249,91.314-41.429,25.963-11.87,42.121-17.772,59.198-28.892,8.066-8.57,4.791-26.693,2.266-37.402l-.04-.14Z"/>
  <path d="M399.924,357.621l-12.894,5.072-14.713-91.071-147.227-73.919.596-13.898,60.418,29.597v-67.984h54.516v94.642l45.086,21.999s15.508,89.526,14.218,95.561"/>
  <rect x="174.801" y="225.467" width="31.801" height="32.019"/>
  <rect x="211.145" y="225.467" width="31.801" height="32.019"/>
  <rect x="174.801" y="262.061" width="31.801" height="32.019"/>
  <rect x="211.145" y="262.061" width="31.801" height="32.019"/>
</svg>