<?xml version="1.0" encoding="UTF-8"?>
<svg id="Layer_1" xmlns="http://www.w3.org/2000/svg" xmlns:xlink="http://www.w3.org/1999/xlink" version="1.1" viewBox="0 0 120 160">
  <!-- Generator: Adobe Illustrator 29.2.1, SVG Export Plug-In . SVG Version: 2.1.0 Build 116)  -->
  <defs>
    <style>
      .st0 {
        fill: url(#linear-gradient);
      }

      .st1 {
        fill: #e82323;
      }
    </style>
    <linearGradient id="linear-gradient" x1="76.675" y1="-3.341" x2="38.424" y2="71.249" gradientUnits="userSpaceOnUse">
      <stop offset="0" stop-color="#ff1d25"/>
      <stop offset="1" stop-color="#f15a24"/>
    </linearGradient>
  </defs>
  <path class="st0" d="M103.27,0l1.054,11.136c22.807.131,13.727,18.604,14.642,34.53l-54.748,20.114c-2.789,7.402,6.133,7.523,6.947,10.235,3.008,10.015-13.462,11.556-20.724,13.834.707-4.132-1.505-11.823.518-14.9.706-1.074,4.311-1.258,5.152-2.502,1.199-1.774-2.539-9.139,1.806-12.737,6.562-5.434,44.37-13.064,49.974-19.139,4.555-4.938,1.499-14.435,2.259-20.835-8.226-.565-7.182,7.968-6.881,13.139H6.774C4.54,23.113,1.09,8.293,7.922,0h95.347Z"/>
  <path class="st1" d="M11.404,160L0,122.852c25.207-1.396,22.219-26.12,40.104-35.134l7.119,10.817c6.887,2.107,22.8-12.416,33.137-7.628,8.455,3.916,11.021,19.976,8.32,36.02-7.425,24.59-59.452,22.184-77.276,33.074Z"/>
</svg>