<?xml version="1.0" encoding="UTF-8"?>
<svg id="Layer_1" xmlns="http://www.w3.org/2000/svg" version="1.1" viewBox="0 0 360 512">
  <!-- Generator: Adobe Illustrator 29.2.1, SVG Export Plug-In . SVG Version: 2.1.0 Build 116)  -->
  <defs>
    <style>
      .st0 {
        fill: #1534ff;
      }
    </style>
  </defs>
  <path class="st0" d="M129.707,294.705c-2.034-18.049-16.174-57.761-39.717-37.635-17.151,14.662-11.602,77.491-12.282,100.223-.916,30.622-4.737,62.76-2.137,93.635,1.176,13.968,18.629,51.575-6.953,44.965-8.325-8.972-.022-18.93.686-28.25.81-10.661,2.034-71.781-7.334-73.969-6.338-1.481-8.919,17.567-9.314,21.904-.747,8.212,3.177,41.541.075,43.833l-6.324.913c-4.208-8.015-.113-14.205.059-21.781.346-15.313-.504-30.683-.008-46.004l-16.738-246.807-10.154-.268c-2.748-3.585-1.19-11.011-2.846-13.83-.773-1.316-8.517-3.834-11.709-8.079-15.76-20.96,18.469-66.082,33.757-81.253C61.369,19.871,84.617,9.573,116.188,6.177c43.602-4.689,125.269-8.797,164.267,8.61,28.028,12.511,78.52,60.02,78.589,92.408.044,20.853-19.022,17.425-17.709,36.626-3.324,4.837-9.545-5.176-11.358,13.64-4.839,50.216-5.74,101.397-8.618,151.806-.527,9.226-4.167,22.565-4.213,31.359-.043,8.186,10.594,35.179-3.359,38.081-16.457,3.424-5.276-34.659-4.844-42.252,1.274-22.356-8.487-28.832-14.025-3.626-7.611,34.641-11.489,101.508-8.971,136.897.482,6.775,11.22,31.005-6.362,27.229-12.211-2.623-2.518-22.361-1.942-29.312.761-9.181,3.247-43.695-11.034-42.398-8.375.76-10.87,15.075-11.878,21.567-.761,4.901-2.274,20.192-2.18,24.884.27,13.402,17.051,33.553-4.798,38.197-18.635-7.134-4.885-26.282-3.479-40.203,1.168-11.562,1.569-52.702-3.274-61.271-3.402-6.02-10.761-7.914-12.573-16.762-2.671-13.042,11.286-57.509-16.36-56.491-29.447,1.085-40.942,70.09-38.39,92.655,1.49,13.173,15.878,40.709-12.221,32.004-7.051-7.088,2.913-33.701,3.743-44.209,1.603-20.275,2.201-92.112-4.091-108.561-2.023-5.289-7.295-11.015-13.36-9.02-12.922,4.249-6.126,51.152-5.925,62.883-2.15,7.253-12.116,7.743-12.116.456,0-20.366,2.184-47.286,0-66.669ZM350.527,97.823c-15.245-33.468-49.407-69.698-85.413-80.196-38.923-11.349-122.231-7.377-163.278-.802-28.042,4.492-47.655,19.431-65.825,40.428-8.705,10.06-42.683,52.31-25.712,63.688l13.158-.238v-6.179c-24.558-5.706-16.625-17.501,3.704-22.369,62.398-14.943,167.562-10.1,232.78-6.853,30.213,1.504,62.318.091,90.586,12.521ZM335.971,118.626l10.466,3.282c5.405-4.676,6.973-10.828,6.173-17.823-3.25-.227-2.576,4.237-5.071,6.339-4.863,4.095-12.623,2.01-11.567,8.202ZM81.779,118.679l-37.481-4.166,21.897,6.195,15.584-2.029Z"/>
</svg>