 
<svg id="Layer_1" xmlns="http://www.w3.org/2000/svg" version="1.1" viewBox="0 0 160 160">
 
  <g id="VwhSIn">
    <path d="M108.437,0c-.171,3.56,2.181,4.186,4.204,5.977,13.289,11.767,26.547,23.505,39.386,35.786,5.998,9.078,3.1,24.483,2.712,35.079l-48.512,7.727c-10.439-3.756-20.392-11.04-31.39-12.584l-16.406,11.956,4.654,14.669c10.73,2.077,6.132-6.191,7.981-9.114.514-.813,6.701-2.185,8.141-1.908.935.18,4.376,7.468,6.531,9.504,2.954,2.792,9.778,4.726,10.979,6.259,1.143,1.461-.433,2.847-2.478,2.514-2.219-.361-4.911-3.022-7.72-2.495l7.84,26.619c18.897-10.583,40.797-5.488,61.061-9.397v24.275c0,1.731-6.773,8.834-8.822,9.972-3.719,2.065-9.554,3.055-13.827,3.4-27.213,2.2-79.619,2.515-106.549-.068-12.633-1.212-20.1-6.307-21.214-19.506-2.433-28.817,1.65-61.346.412-90.55.534-4.53,11.016-15.757,14.905-16.468,2.3-.42,4.521,1.479,6.642.526,2.295-1.031,21.784-19.327,25.896-22.826,1.097-.934,2.439-1.474,3.874-1.591l-3.116-7.756h54.815ZM59.901,9.397l13.19,42.394c16.02,3.644,35.332,21.737,50.98,11.637L59.901,9.397ZM56.434,15.394l-.455-4.424c-6.303,5.892-15.362,11.872-21.182,17.971-1.619,1.697-3.674,2.738-3.087,5.514l24.724-19.06ZM59.88,17.234c-2.493-.726-2.656.816-3.892,1.576-8.092,4.975-14.752,13.129-22.857,18.188,3.32,10.118,8.607,20.331,15.016,28.773,2.356-11.692,9.953-17.43,21.124-10.958l-9.391-37.579ZM56.771,79.869c1.187.902,9.734-5.718,11.013-6.974,9.457-9.283-4.877-23.792-13.756-14.559-5.114,5.318,1.958,15.364,2.743,21.533ZM55.169,84.574c-2.905-2.187-7.391,6.628-6.238,9.387l9.356-2.332-3.119-7.055ZM59.863,97.094l-9.153,3.866,3.881,6.995c4.532-1.345,24.358-3.15,25.577-7.023.81-2.575-1.309-6.074-3.822-5.399-1.382.371-2.279,4.253-4.003,5.406-1.309.876-9.977,2.968-10.797,2.373l-1.682-6.22ZM83.369,114.297c.484-.725.092-3.612-.692-4.745-2.755-3.98-25.172,1.638-25.573,5.523-.048.462,1.197,3.942,2.244,4.06,2.497.281,23.33-3.802,24.021-4.838ZM84.801,120.724c-1.179-.911-16.1,1.346-19.03,1.863-1.746.308-5.356.795-4.304,3.466,2.516,6.384,21.71,5.166,24.343-.727.403-.903-.823-4.458-1.009-4.602ZM90.805,146.814c5.205-4.26.834-13.002.39-18.39-5.192,3.278-8.812,7.59-15.659,6.264-2.719,8.357,8.6,17.584,15.268,12.126Z"/>
  </g>
  <g id="VwhSIn1" data-name="VwhSIn">
    <path d="M109.438,0c-.171,3.56,2.181,4.186,4.204,5.977,13.289,11.767,26.547,23.505,39.386,35.786,5.998,9.078,3.1,24.483,2.712,35.079l-48.512,7.727c-10.439-3.756-20.392-11.04-31.39-12.584l-16.406,11.956,4.654,14.669c10.73,2.077,6.132-6.191,7.981-9.114.514-.813,6.701-2.185,8.141-1.908.935.18,4.376,7.468,6.531,9.504,2.954,2.792,9.778,4.726,10.979,6.259,1.143,1.461-.433,2.847-2.478,2.514-2.219-.361-4.911-3.022-7.72-2.495l7.84,26.619c18.897-10.583,40.797-5.488,61.061-9.397v24.275c0,1.731-6.773,8.834-8.822,9.972-3.719,2.065-9.554,3.055-13.827,3.4-27.213,2.2-79.619,2.515-106.549-.068-12.633-1.212-20.1-6.307-21.214-19.506-2.433-28.817,1.65-61.346.412-90.55.534-4.53,11.016-15.757,14.905-16.468,2.3-.42,4.521,1.479,6.642.526,2.295-1.031,21.784-19.327,25.896-22.826,1.097-.934,2.439-1.474,3.874-1.591l-3.116-7.756h54.815ZM60.902,9.397l13.19,42.394c16.02,3.644,35.332,21.737,50.98,11.637L60.902,9.397ZM57.435,15.394l-.455-4.424c-6.303,5.892-15.362,11.872-21.182,17.971-1.619,1.697-3.674,2.738-3.087,5.514l24.724-19.06ZM60.881,17.234c-2.493-.726-2.656.816-3.892,1.576-8.092,4.975-14.752,13.129-22.857,18.188,3.32,10.118,8.607,20.331,15.016,28.773,2.356-11.692,9.953-17.43,21.124-10.958l-9.391-37.579ZM57.772,79.869c1.187.902,9.734-5.718,11.013-6.974,9.457-9.283-4.877-23.792-13.756-14.559-5.114,5.318,1.958,15.364,2.743,21.533ZM56.17,84.574c-2.905-2.187-7.391,6.628-6.238,9.387l9.356-2.332-3.119-7.055ZM60.863,97.094l-9.153,3.866,3.881,6.995c4.532-1.345,24.358-3.15,25.577-7.023.81-2.575-1.309-6.074-3.822-5.399-1.382.371-2.279,4.253-4.003,5.406-1.309.876-9.977,2.968-10.797,2.373l-1.682-6.22ZM84.37,114.297c.484-.725.092-3.612-.692-4.745-2.755-3.98-25.172,1.638-25.573,5.523-.048.462,1.197,3.942,2.244,4.06,2.497.281,23.33-3.802,24.021-4.838ZM85.801,120.724c-1.179-.911-16.1,1.346-19.03,1.863-1.746.308-5.356.795-4.304,3.466,2.516,6.384,21.71,5.166,24.343-.727.403-.903-.823-4.458-1.009-4.602ZM91.806,146.814c5.205-4.26.834-13.002.39-18.39-5.192,3.278-8.812,7.59-15.659,6.264-2.719,8.357,8.6,17.584,15.268,12.126Z"/>
  </g>
</svg>