<svg xmlns="http://www.w3.org/2000/svg" viewBox="0 0 500 400"><path d="M306.157 40.741c6.091 1.245 34.557 18.156 42.207 22.517 95.117 54.233 210.183 158.256 117.432 270.419L342.061 217.922l-59.699 60.774v-28.555H239.53c-1.644 0-2.802 14.686-2.948 18.013-.908 20.675 1.431 42.028-.029 62.308l-53.086 57.789c-38.37 18.41-85.987.252-106.338-36.626-2.224-4.03-12.356-26.546-9.869-29.136 1.117-1.163 24.514 7.171 31.317 7.688 32.342 2.457 57.893-7.033 74.733-35.844 34.788-59.517-31.044-118.384-78.133-145.41-15.897-9.124-35.259-8.736-24.876-33.75.527-1.271 6.173-11.033 6.742-11.369 4.659-2.752 56.923 25.606 65.034 30.581 22.241 13.643 53.499 36.875 65.163 60.479l6.571 17.195c-.433-38.898-36.137-69.835-67.232-87.886-17.673-10.26-36.446-15.446-53.785-24.242-2.009-1.019-3.582.972-2.693-3.955 11.645-2.383 35.858-19.336 46.433-18.999 4.44.141 30.326 12.449 36.138 15.392 10.078 5.103 19.278 12.515 29.736 16.883-5.676-8.645-16.242-12.435-24.161-18.651L143.41 73.126c19.153-5.561 37.784-12.945 57.078-18.126 10.798-2.9 45.161-12.338 54.027-11.738 9.643.652 45.164 20.309 55.083 26.399 15.371 9.438 29.068 20.916 43.179 31.995 1.948-2.144-5.841-8.853-7.57-10.494-5.972-5.669-15.438-12.871-22.27-17.707-17.247-12.21-36.761-20.482-53.901-32.715 10.891 1.518 27.006-2.068 37.121 0Z"/><path d="M307.094 27.441c.395 3.576-3.993 1.536-6.087 1.334-58.434-5.619-152.951 24.211-205.885 50.308C72.76 90.108 51.579 98.023 53.054 127.4c1.05 20.914 23.327 21.794 38.37 29.085.947.459 6.039 2.888 3.407 4.208-14.166-1.009-53.465-12.256-56.023-27.739-.955-5.78-.733-20.249.329-26.094 4.992-27.478 62.671-38.056 81.412-54.676l-36.157-9.52 21.931 9.449 4.707 3.837c-13.028 1.751-22.997 13.054-36.638 11.029-6.574-.976-61.813-22.076-67.547-25.799-7.774-5.048-8.157-18.807-4.958-26.633C5.091 6.709 29.802 6.743 37.685 4.482l121.857 37.307c35.452-8.862 73.784-20.067 110.469-21.968 14.778-.766 24.474-.599 37.084 7.62ZM52.025 14.099c-1.488-1.184-21.898-3.129-22.847 3.778 2.362 3.152 29.838 1.785 22.847-3.778M376.641 301.541v28.555h-27.456l-1.147-28.555zM126.262 312.943c-6.692-.107-31.485-2.166-27.166-12.744 7.167-17.552 21.531 5.537 27.166 12.744M336.175 305.669v28.555h-27.456l-1.148-28.555zM377.747 342.994v28.555h-27.456l-1.148-28.555zM338.281 342.994v28.555h-27.456l-1.148-28.555z"/></svg>