 
<svg   xmlns="http://www.w3.org/2000/svg" viewBox="0 0 160 160">
 
  <path  d="M27.2,29.1c7.1-1.3,11.7-.4,15.3,6.2,2.1,4,7.7,24.5,7.2,28.6-.8,6.5-7.7,7.4-10.7,12.6,10.8,18,26.2,33,43.8,44.4,7.3-2.7,6.2-10.9,15.9-10.6,3,.1,21.8,5.5,25,6.9,20.3,9-1.9,35.4-19.4,36.1-33.9,1.4-97-61.1-97.6-94.8-.2-11,9.4-27.3,20.5-29.4Z"/>
  <path  d="M77,6.9c6.5-1.6,27.1,6.6,33.6,10.1,16.8,9.1,32.5,27.5,38.7,45.6,1.4,4,6.2,21.2,2.8,23.6-6.5,4.6-7.2-13.8-8.4-17.9-7.3-24.2-27.6-44.6-51.8-51.8-3.9-1.2-20.7-1.7-17.9-7,.9-.9,1.8-2.2,3.1-2.5Z"/>
  <path  d="M76.9,29c11.7-3.7,33,9.9,40.6,18.4,5.8,6.6,18.3,28.6,13.1,36.7-4.9,7.6-8-14-8.8-16.2-4.5-12.6-17.1-25.3-29.7-29.7s-16.8-2.5-17.5-6c-.3-1.5.9-2.8,2.3-3.2Z"/>
  <path  d="M101.7,59.7c3.6,3.8,12.9,19.8,7.4,23.8l-4.7-.7c-1.4-14.2-12.4-26.1-26.9-26.5v-6.6c8.3-1.2,18.5,4.1,24.2,10Z"/>
</svg>