<?xml version="1.0" encoding="UTF-8"?>
<svg id="Layer_1" xmlns="http://www.w3.org/2000/svg" xmlns:xlink="http://www.w3.org/1999/xlink" version="1.1" viewBox="0 0 512 512">
  <!-- Generator: Adobe Illustrator 29.2.1, SVG Export Plug-In . SVG Version: 2.1.0 Build 116)  -->
  <defs>
    <style>
      .st0 {
        fill: url(#linear-gradient);
      }
    </style>
    <linearGradient id="linear-gradient" x1="256" y1="-39.593" x2="256" y2="555.758" gradientUnits="userSpaceOnUse">
      <stop offset=".378" stop-color="#f62233"/>
      <stop offset="1" stop-color="#ffbe15"/>
    </linearGradient>
  </defs>
  <path class="st0" d="M218.966,282.32h13.314c3.213,0,7.5,4.032,7.946,6.927.908,5.887-.357,13.736.047,19.955.695,10.703,2.959,22.029,3.864,32.893,2.97,35.647,2.248,71.432-.485,107.089-.862,11.246-2.675,22.545-3.379,33.782-.458,7.306,2.872,17.686-7.552,19.731-12.118-.563-25.262.883-37.257.058-12.165-.836-8.472-12.823-8.941-20.678-.453-7.592-1.847-15.493-2.412-23.116-3.086-41.628-4.421-81.824-.968-123.532.682-8.237,2.288-16.713,2.896-24.894.477-6.415-.367-14.786.531-20.843.468-3.153,4.362-7.371,7.946-7.371h12.346v-24.219c0-9.463-9.469-14.368-18.647-14.88-54.609-.436-109.397.844-163.904-.649-10.302-2.238-17.045-11.532-17.879-20.918-1.357-15.271,1.013-32.119-.026-47.56.957-11.935,10.209-21.879,23.738-21.984-1.373-11.604,5.362-37.823,20.635-39.497l309.336-.065c16.477,1.307,21.423,25.561,22.032,37.548.493,9.709.502,21.863-.025,31.565-.708,13.045-4.91,32.985-20.612,37.073l-310.73-.012c-11.244-1.233-17.524-15.988-19.436-24.821-2.149-9.928-.844-20.16-1.191-30.236-8.059-.499-11.164,6.314-11.642,12.649-.903,11.966-.904,30.732,0,42.698.429,5.683,2.892,11.973,9.925,12.665,54.039.279,108.164-.657,162.15.482,15.068,1.195,26.81,9.938,28.383,24.164.905,8.182-.674,17.675,0,25.997ZM468.757,504.214c16.12-5.672,24.525-23.157,18.773-39.053-17.4-48.085-38.205-83.136-67.456-113.655-.109-.115-.221-.229-.332-.342-9.543-9.652-20.288-20.518-32.286-31.32,36.837-7.661,68.8-28.597,89.464-59.104,28.412-40.727,36.606-94.055,21.919-142.71-13.55-44.888-45.29-80.33-87.106-97.282-34.409-14.541-69.792-14.743-101.151-14.743-.546,0-1.101-.009-1.633.001-12.595.112-25.169.237-37.733.361-39.171.387-79.674.788-119.546.799-17.115.005-30.987,13.691-30.983,30.569.004,16.875,13.878,30.551,30.992,30.551h.009c40.173-.011,80.83-.413,120.15-.802,12.497-.124,25.004-.247,37.532-.36,27.059.015,54.895.012,78.101,9.867.177.075.356.148.534.221,24.846,10.014,43.11,30.702,51.427,58.255,9.407,31.167,4.298,65.097-13.67,90.763-.1.144-.201.29-.3.436-13.653,20.242-35.446,32.646-61.362,34.929-.232.02-.464.043-.694.068-4.464.494-9.304.884-14.428,1.299-4.067.329-8.272.669-12.364,1.071-14.837,1.444-30.186,3.811-40.48,15.238-.351.391-.694.79-1.025,1.197-6.029,7.428-8.626,16.686-7.309,26.067,2.352,16.757,15.663,26.142,23.616,31.75.722.508,1.391.965,1.822,1.296.749.601,1.525,1.169,2.328,1.7,20.939,13.856,38.661,31.18,59.626,52.379,23.284,24.342,39.429,51.884,53.961,92.042,4.525,12.502,16.457,20.298,29.191,20.298,3.456,0,6.973-.575,10.414-1.786Z"/>
</svg>