 
<svg id="Layer_2" xmlns="http://www.w3.org/2000/svg" version="1.1" viewBox="0 0 512 512">
 
  <defs>
    <style>
      .st0 {
        stroke-linejoin: round;
        stroke-width: 65px;
      }

      .st0, .st1 {
        fill: none;
        stroke: #000;
        stroke-linecap: round;
      }

      .st1 {
        stroke-miterlimit: 20;
        stroke-width: 24px;
      }
    </style>
  </defs>
  <path d="M222.626,256.685c-1.57-14.398-13.289-23.248-28.328-24.457-53.88-1.153-107.9-.205-161.833-.488-7.02-.701-9.478-7.066-9.906-12.819-.902-12.111-.901-31.105,0-43.216.477-6.412,3.576-13.307,11.619-12.803.346,10.198-.956,20.555,1.189,30.603,1.908,8.94,8.177,23.874,19.398,25.123l310.124.012c15.672-4.138,19.866-24.32,20.572-37.524.526-9.82.517-22.121.025-31.949-.608-12.133-5.544-36.682-21.989-38.004l-308.732.066c-15.242,1.694-21.965,28.232-20.594,39.977-13.503.107-22.736,10.171-23.691,22.251,1.037,15.628-1.328,32.681.026,48.137.832,9.5,7.562,18.907,17.844,21.172,54.401,1.511,109.081.216,163.584.657,9.161.518,18.611,5.483,18.611,15.061v24.513h-12.322c-3.578,0-7.464,4.269-7.931,7.461-.896,6.131-.054,14.603-.53,21.096-.607,8.28-2.21,16.859-2.891,25.196-3.446,42.215-2.114,82.899.967,125.033.564,7.716,1.955,15.713,2.407,23.397.468,7.951-3.218,20.083,8.924,20.93,11.972.835,25.09-.628,37.184-.059,10.404-2.07,7.08-12.576,7.537-19.971.703-11.374,2.512-22.81,3.373-34.193,2.728-36.09,3.448-72.31.484-108.39-.903-10.996-3.163-22.459-3.857-33.292-.403-6.294.859-14.238-.047-20.197-.446-2.93-4.724-7.011-7.931-7.011h-13.288c-.672-8.423.903-18.032,0-26.312Z"/>
  <path class="st1" d="M434.352,462.498"/>
  <path class="st0" d="M154.489,35.076c52.49-.014,104.694-.699,157.244-1.176,30.819-.003,61.659.164,90.324,12.51,75.661,30.924,96.76,131.374,51.437,197.032-19.106,28.724-49.529,45.931-84.246,49.031-8.693.974-18.314,1.562-27.146,2.44-9.62.95-17.819,2.375-20.316,5.185-4.272,5.338,8.904,12.781,13.505,16.537,24.373,16.355,44.496,36.67,64.589,57.279,29.077,30.766,46.543,64.591,60.673,104.186"/>
</svg>