<?xml version="1.0" encoding="UTF-8"?>
<svg id="Layer_1" xmlns="http://www.w3.org/2000/svg" xmlns:xlink="http://www.w3.org/1999/xlink" version="1.1" viewBox="0 0 512 512">
  <!-- Generator: Adobe Illustrator 29.2.1, SVG Export Plug-In . SVG Version: 2.1.0 Build 116)  -->
  <defs>
    <style>
      .st0 {
        fill: url(#linear-gradient);
      }
    </style>
    <linearGradient id="linear-gradient" x1="256" y1="-2.298" x2="256" y2="510.026" gradientUnits="userSpaceOnUse">
      <stop offset=".124" stop-color="#f62233"/>
      <stop offset=".859" stop-color="#ff9800"/>
    </linearGradient>
  </defs>
  <path class="st0" d="M341.629,136.22c2.257,11.949,2.625,54-1.891,64.569-4.026,9.422-14.356,12.352-24.985,13.22-77.949-.844-156.269,1.566-234.006-1.23-13.816-2.808-16.09-13.158-16.845-24.018-.865-12.446-1.651-51.425,3.479-61.418,3.44-6.701,10.117-8.788,17.938-9.885,71.567.459,144.212-3.529,215.802-.606,17.545.716,36.945.512,40.507,19.368ZM30.558,178.853c8.859.514,10.26,15.252,19.195,11.347,5.573-2.435,3.274-7.154,3.294-10.957.06-11.407-.469-23.097.008-34.457.248-5.902,5.026-13.48-7.708-11.146-8.716,1.598-6.567,8.372-8.542,13.728-5.06,13.727-21.675,6.759-27.283,16.327-1.035,1.765-1.83,4.946-2.102,6.939-2.035,14.913-1.675,47.457-.22,62.729,1.254,13.163,8.836,17.3,22.17,20.812,42.705,11.246,90.437,16.849,133.888,26.766,8.969,2.047,17.645,3.853,20.619,12.658,1.951,5.776-.132,11.319.206,17.384.19,3.407,2.849,7.239.051,10.245-4.344,4.667-21.676-2.952-21.709,10.221-.035,13.5,10.35,6.975,18.775,6.23,13.367-1.182,22.3,2.151,34.219,2.905,8.051.509,9.408-2.237,9.636-9.124.44-13.321-12.457-5.252-18.84-10.61-3.967-3.33-2.021-8.959-2.034-12.792-.03-9.135,1.137-26.08-4.038-33.849-3.809-5.718-14.134-8.365-21.026-10.105-43.609-11.007-90.759-17.046-134.743-27.48-14.021-4.238-14.167-11.313-13.854-23.043.052-1.934.884-3.701.909-5.79.116-9.697-.974-19.265-.87-28.942ZM204.361,343.703c-3.759-.598-18.478-.651-22.143-.004-6.197,1.093-6.922,7.255-7.319,11.879-1.221,14.205-.488,29.4-1.645,43.936-1.711,21.503-7.07,45.555-7.493,66.619-.383,19.029,13.046,37.94,37.378,31.318,17.575-4.783,19.287-23.677,18.52-37.173-1.748-30.755-7.206-62.517-9.206-93.662-.449-6.99,2.866-21.168-8.091-22.912ZM452.083,506c-14.241-.02-27.572-7.831-32.61-20.335-16.179-40.162-34.186-67.717-60.183-92.084-23.408-21.222-43.197-38.566-66.59-52.449-.897-.532-1.765-1.101-2.601-1.703-.482-.331-1.229-.789-2.035-1.298-8.885-5.618-23.754-15.02-26.354-31.772-1.456-9.379,1.465-18.628,8.222-26.043.371-.407.754-.805,1.148-1.195,11.534-11.406,28.704-13.747,45.301-15.167,4.578-.395,9.281-.728,13.83-1.051,5.732-.406,11.145-.789,16.139-1.275.258-.025.517-.048.776-.067,28.989-2.241,53.384-14.604,68.691-34.815.111-.146.223-.291.336-.435,20.141-25.626,25.918-59.532,15.453-90.699-9.253-27.553-29.641-48.26-57.411-58.309-.2-.072-.399-.146-.597-.221-25.935-9.888-57.068-9.929-87.33-9.986-14.012.092-27.999.196-41.976.3-43.976.326-89.448.665-134.378.612h-.01c-19.14-.027-34.631-13.718-34.606-30.586.026-16.87,15.565-30.527,34.707-30.505,44.593.052,89.893-.285,133.703-.61,14.052-.105,28.115-.209,42.201-.301.594-.01,1.215,0,1.826.001,35.072.05,74.644.308,113.101,14.896,46.737,17.011,82.171,52.485,97.243,97.374,16.337,48.656,7.076,101.945-24.774,142.608-23.167,30.46-58.952,51.336-100.165,58.935,13.399,10.816,25.397,21.694,36.052,31.356.124.114.249.227.371.342,32.659,30.551,55.863,65.618,75.237,113.708,6.404,15.897-3.028,33.361-21.067,39.005-3.851,1.205-7.785,1.774-11.651,1.769Z"/>
</svg>