<?xml version="1.0" encoding="UTF-8"?>
<svg id="Layer_2" xmlns="http://www.w3.org/2000/svg" version="1.1" viewBox="0 0 500 400">
  <!-- Generator: Adobe Illustrator 29.2.1, SVG Export Plug-In . SVG Version: 2.1.0 Build 116)  -->
  <defs>
    <style>
      .st0 {
        fill: #5e5e5e;
      }
    </style>
  </defs>
  <g>
    <path d="M291.595,95.73l5.082-.792.238-15.199s39.893-17.066,42.094-17.311c4.564-.507,12.479,9.279,14.599,13.767l-6.262,12.823-7.127-8.428h-3.235s-82.287,107.22-82.287,107.22l-92.136-20.822c-16.045-18.683-30.564-43.442-47.023-61.209-1.349-1.456-4.958-6.366-7.154-5.005l-66.134,85.564-31.113,19.247,95.681-122.502,108.333,31.896c7.014,3.403,7.894,13.135,11.903,19.323,2.869-.652,18.971-29.15,23.898-33.553,5.92-5.291,23.17-8.648,26.33-12.54,3.482-4.288.222-17.29,14.314-17.641v25.162Z"/>
    <path d="M458.903,193.04c-111.196,136.29-277.107-18.964-407.911,12.566C32.477,210.069,15.838,219.303,0,229.908c13.294-14.102,30.535-27.516,47.472-36.394,133.803-70.134,278.875,78.063,411.431-.474Z"/>
    <path d="M452.33,174.329l-3.763.223-2.404-4.151,12.741-14.264c-32.694-.178-21.665,48.401,1.59,10.881l12.742-12.567c1.269,18.746-23.492,45.705-41.387,37.691l-81.025-95.976c-2.428-12.838,15.397-33.241,28.489-28.206l86.003,75.638c5.85,2.867,15.188-11.263,17.454-16.706-.781-3.652-48.504-38.266-51.769-46.314-2.979-7.343,13.161-24.729,17.815-31.532,2.13-3.114,1.925-6.998,4.412-10.452,3.67-5.097,29.664-34.519,33.484-36.902,2.086-1.301,3.521-2.238,6.057-1.326,7.297,2.917,9.221,7.647,5.089,14.76-2.451,4.22-28.094,32.571-32.477,36.262-3.036,2.557-6.724,2.147-8.918,4.032-5.654,4.856-24.093,18.4-17.586,25.337,7.506,8.278,48.928,38.225,50.046,46.386,1.174,8.568-32.434,36.992-36.594,47.189Z"/>
    <g>
      <rect x="97.059" y="138.284" width="8.507" height="9.412"/>
      <rect x="108.553" y="138.286" width="8.507" height="9.412"/>
      <rect x="97.059" y="150.008" width="8.507" height="9.412"/>
      <rect x="108.553" y="150.01" width="8.507" height="9.412"/>
    </g>
    <g>
      <rect x="323.659" y="131.222" width="12.76" height="14.119"/>
      <rect x="340.899" y="131.224" width="12.76" height="14.119"/>
      <rect x="323.659" y="148.808" width="12.76" height="14.119"/>
      <rect x="340.899" y="148.811" width="12.76" height="14.119"/>
    </g>
    <polygon points="100.55 125.28 119.573 125.28 110.903 111.915 100.55 125.28"/>
    <polygon points="323.713 111.915 351.912 111.915 339.06 92.104 323.713 111.915"/>
  </g>
  <g>
    <g>
      <path d="M51.534,268.585v49.657h-9.068l-21.603-31.254h-.364v31.254h-10.498v-49.657h9.213l21.434,31.23h.436v-31.23h10.45Z"/>
      <path d="M104.003,285.97h-10.62c-.194-1.374-.59-2.598-1.188-3.673s-1.366-1.992-2.304-2.752-2.016-1.342-3.237-1.746-2.542-.607-3.965-.607c-2.57,0-4.809.635-6.716,1.904-1.908,1.268-3.387,3.112-4.438,5.527-1.051,2.417-1.576,5.347-1.576,8.79,0,3.539.529,6.514,1.588,8.922,1.059,2.409,2.541,4.227,4.449,5.455,1.907,1.229,4.113,1.843,6.619,1.843,1.406,0,2.712-.186,3.916-.558,1.204-.371,2.275-.917,3.212-1.636.937-.72,1.718-1.596,2.34-2.631.622-1.033,1.054-2.214,1.297-3.539l10.62.049c-.275,2.278-.958,4.473-2.049,6.583-1.091,2.109-2.555,3.992-4.389,5.65-1.834,1.656-4.017,2.966-6.546,3.927-2.53.961-5.387,1.443-8.572,1.443-4.429,0-8.385-1.003-11.869-3.007-3.483-2.003-6.231-4.905-8.244-8.704-2.012-3.798-3.019-8.397-3.019-13.795s1.018-10.022,3.055-13.822c2.036-3.798,4.801-6.696,8.292-8.692,3.491-1.996,7.419-2.995,11.783-2.995,2.878,0,5.549.404,8.014,1.213s4.651,1.985,6.559,3.528c1.907,1.543,3.463,3.431,4.667,5.661,1.204,2.231,1.976,4.785,2.316,7.662Z"/>
      <path d="M138.48,282.867c-.194-1.956-1.027-3.476-2.498-4.559-1.471-1.082-3.467-1.624-5.988-1.624-1.713,0-3.161.239-4.34.715-1.18.476-2.082,1.135-2.703,1.975-.623.842-.933,1.795-.933,2.862-.033.889.157,1.666.57,2.328.412.663.982,1.232,1.709,1.709.727.478,1.568.889,2.522,1.236.953.349,1.972.643,3.055.885l4.461,1.067c2.166.486,4.154,1.132,5.965,1.941,1.81.808,3.378,1.802,4.704,2.982,1.325,1.179,2.356,2.57,3.091,4.17s1.111,3.435,1.128,5.504c-.017,3.039-.788,5.67-2.316,7.893-1.528,2.223-3.726,3.944-6.596,5.163-2.869,1.221-6.324,1.831-10.365,1.831-4.009,0-7.496-.614-10.462-1.842-2.966-1.229-5.278-3.052-6.934-5.468-1.657-2.417-2.526-5.411-2.607-8.983h10.159c.113,1.664.594,3.05,1.443,4.158s1.988,1.941,3.419,2.498,3.051.836,4.861.836c1.778,0,3.326-.258,4.643-.775,1.318-.518,2.34-1.238,3.067-2.159.728-.921,1.091-1.979,1.091-3.176,0-1.115-.327-2.053-.982-2.813-.654-.76-1.609-1.406-2.861-1.939-1.253-.533-2.784-1.02-4.594-1.456l-5.407-1.357c-4.187-1.018-7.492-2.61-9.917-4.777-2.425-2.166-3.629-5.083-3.612-8.753-.017-3.006.788-5.633,2.412-7.88,1.625-2.246,3.859-4.001,6.705-5.261,2.845-1.261,6.077-1.892,9.698-1.892,3.686,0,6.906.631,9.663,1.892,2.755,1.26,4.901,3.014,6.437,5.261,1.536,2.248,2.327,4.849,2.376,7.808h-10.062Z"/>
      <path d="M172.085,318.242v-49.657h19.591c3.766,0,6.975.715,9.627,2.146,2.65,1.431,4.674,3.41,6.073,5.94,1.397,2.53,2.098,5.444,2.098,8.742s-.711,6.207-2.134,8.728-3.48,4.485-6.17,5.893c-2.692,1.406-5.945,2.109-9.76,2.109h-12.487v-8.414h10.789c2.021,0,3.689-.351,5.008-1.054,1.317-.703,2.303-1.681,2.957-2.934.654-1.252.982-2.695.982-4.327,0-1.649-.328-3.092-.982-4.328s-1.645-2.198-2.97-2.885-3.006-1.031-5.044-1.031h-7.079v41.073h-10.499Z"/>
      <path d="M219.122,318.242h-11.25l17.143-49.657h13.529l17.118,49.657h-11.25l-12.438-38.309h-.388l-12.463,38.309ZM218.419,298.723h26.574v8.196h-26.574v-8.196Z"/>
      <path d="M272.125,268.585v49.657h-10.499v-49.657h10.499Z"/>
      <path d="M322.315,268.585v49.657h-9.068l-21.603-31.254h-.364v31.254h-10.499v-49.657h9.214l21.433,31.23h.438v-31.23h10.45Z"/>
      <path d="M329.077,277.241v-8.656h40.783v8.656h-15.202v41.001h-10.378v-41.001h-15.202Z"/>
      <path d="M387.1,268.585v49.657h-10.499v-49.657h10.499Z"/>
      <path d="M437.289,268.585v49.657h-9.068l-21.603-31.254h-.364v31.254h-10.499v-49.657h9.214l21.433,31.23h.438v-31.23h10.45Z"/>
      <path d="M478.87,284.636c-.339-1.179-.817-2.227-1.431-3.139-.614-.914-1.361-1.689-2.242-2.328-.882-.639-1.884-1.128-3.007-1.467-1.122-.339-2.363-.51-3.721-.51-2.538,0-4.765.631-6.68,1.892-1.914,1.261-3.406,3.091-4.473,5.491s-1.6,5.331-1.6,8.79.525,6.401,1.577,8.825c1.05,2.425,2.537,4.272,4.46,5.54,1.924,1.27,4.195,1.904,6.814,1.904,2.377,0,4.409-.425,6.098-1.274s2.982-2.049,3.88-3.601c.896-1.552,1.345-3.385,1.345-5.504l2.134.315h-12.802v-7.904h20.78v6.255c0,4.365-.921,8.111-2.764,11.238-1.843,3.128-4.381,5.537-7.614,7.226-3.232,1.689-6.934,2.534-11.105,2.534-4.655,0-8.744-1.031-12.269-3.092-3.524-2.06-6.268-4.994-8.232-8.801-1.964-3.806-2.945-8.328-2.945-13.566,0-4.024.585-7.617,1.757-10.777s2.816-5.84,4.934-8.037c2.117-2.199,4.583-3.871,7.396-5.019,2.812-1.147,5.859-1.722,9.14-1.722,2.813,0,5.431.408,7.855,1.225,2.425.817,4.579,1.968,6.462,3.455,1.882,1.488,3.423,3.253,4.619,5.298s1.964,4.295,2.303,6.752h-10.668Z"/>
    </g>
    <g>
      <path class="st0" d="M129.303,363.032v-24.828h9.795c1.875,0,3.478.333,4.807,1s2.343,1.607,3.043,2.824c.699,1.217,1.049,2.645,1.049,4.285,0,1.649-.356,3.066-1.067,4.249s-1.74,2.091-3.085,2.721c-1.346.631-2.973.946-4.88.946h-6.559v-4.219h5.71c1.002,0,1.835-.138,2.498-.413s1.158-.686,1.485-1.236.491-1.232.491-2.049c0-.824-.164-1.52-.491-2.085s-.824-.996-1.491-1.29c-.667-.296-1.505-.443-2.516-.443h-3.539v20.537h-5.249ZM142.712,351.733l6.17,11.299h-5.795l-6.038-11.299h5.662Z"/>
      <path class="st0" d="M159.708,363.396c-1.884,0-3.51-.403-4.88-1.207-1.37-.803-2.427-1.927-3.17-3.37-.744-1.442-1.115-3.117-1.115-5.024,0-1.924.372-3.608,1.115-5.049.743-1.443,1.8-2.566,3.17-3.37,1.37-.804,2.996-1.207,4.88-1.207s3.51.403,4.879,1.207c1.37.804,2.427,1.927,3.171,3.37.743,1.442,1.115,3.126,1.115,5.049,0,1.907-.372,3.583-1.115,5.024-.744,1.443-1.8,2.567-3.171,3.37-1.37.804-2.996,1.207-4.879,1.207ZM159.732,359.396c.856,0,1.572-.244,2.145-.733s1.008-1.159,1.303-2.007c.295-.847.443-1.814.443-2.896s-.148-2.049-.443-2.898c-.294-.849-.729-1.52-1.303-2.013s-1.289-.739-2.145-.739c-.865,0-1.591.246-2.176.739-.586.493-1.027,1.164-1.322,2.013s-.442,1.814-.442,2.898.147,2.049.442,2.896c.295.849.736,1.518,1.322,2.007.586.489,1.311.733,2.176.733Z"/>
      <path class="st0" d="M177.407,338.205v24.828h-5.165v-24.828h5.165Z"/>
      <path class="st0" d="M186.694,338.205v24.828h-5.165v-24.828h5.165Z"/>
      <path class="st0" d="M221.644,350.618c0,2.707-.511,5.012-1.534,6.911s-2.412,3.348-4.17,4.347c-1.758.997-3.732,1.496-5.922,1.496-2.206,0-4.186-.5-5.94-1.503-1.754-1.002-3.14-2.453-4.158-4.352s-1.527-4.198-1.527-6.898.509-5.011,1.527-6.909,2.405-3.348,4.158-4.347c1.754-.997,3.734-1.497,5.94-1.497,2.191,0,4.165.5,5.922,1.497,1.758.999,3.148,2.448,4.17,4.347s1.534,4.202,1.534,6.909ZM216.322,350.618c0-1.753-.26-3.232-.782-4.437s-1.255-2.117-2.2-2.739-2.053-.933-3.322-.933-2.376.311-3.321.933c-.946.622-1.679,1.535-2.2,2.739-.522,1.204-.782,2.684-.782,4.437s.26,3.234.782,4.437c.521,1.204,1.254,2.118,2.2,2.741.945.622,2.052.933,3.321.933s2.377-.311,3.322-.933,1.679-1.536,2.2-2.741c.522-1.203.782-2.682.782-4.437Z"/>
      <path class="st0" d="M230.591,352.267v10.766h-5.165v-18.621h4.922v3.285h.218c.412-1.084,1.103-1.942,2.073-2.577.97-.633,2.145-.952,3.528-.952,1.293,0,2.421.283,3.382.849.961.567,1.709,1.372,2.243,2.418.533,1.047.8,2.293.8,3.741v11.856h-5.165v-10.935c.008-1.139-.283-2.031-.872-2.673-.59-.643-1.402-.964-2.437-.964-.695,0-1.307.15-1.836.449s-.942.733-1.237,1.303c-.294.57-.447,1.254-.454,2.054Z"/>
      <path class="st0" d="M277.483,350.618c0,2.707-.511,5.012-1.534,6.911s-2.411,3.348-4.17,4.347c-1.757.997-3.731,1.496-5.922,1.496-2.206,0-4.186-.5-5.94-1.503-1.754-1.002-3.14-2.453-4.158-4.352s-1.527-4.198-1.527-6.898.509-5.011,1.527-6.909,2.405-3.348,4.158-4.347c1.754-.997,3.734-1.497,5.94-1.497,2.191,0,4.165.5,5.922,1.497,1.759.999,3.148,2.448,4.17,4.347s1.534,4.202,1.534,6.909ZM272.161,350.618c0-1.753-.26-3.232-.782-4.437-.521-1.204-1.254-2.117-2.2-2.739-.945-.622-2.053-.933-3.322-.933s-2.376.311-3.321.933c-.946.622-1.679,1.535-2.2,2.739-.522,1.204-.782,2.684-.782,4.437s.26,3.234.782,4.437c.521,1.204,1.254,2.118,2.2,2.741.945.622,2.052.933,3.321.933s2.377-.311,3.322-.933c.946-.622,1.679-1.536,2.2-2.741.522-1.203.782-2.682.782-4.437ZM264.038,354.4h4.463l2.242,2.885,2.206,2.57,4.159,5.213h-4.898l-2.862-3.516-1.467-2.085-3.843-5.067Z"/>
      <path class="st0" d="M293.231,355.103v-10.692h5.165v18.621h-4.959v-3.382h-.193c-.421,1.092-1.118,1.968-2.092,2.631s-2.16.995-3.558.995c-1.245,0-2.341-.283-3.285-.849-.946-.567-1.684-1.371-2.213-2.413-.529-1.043-.799-2.292-.806-3.746v-11.856h5.163v10.935c.008,1.099.304,1.968.886,2.606.581.639,1.361.958,2.339.958.622,0,1.204-.143,1.746-.431.54-.288.979-.713,1.315-1.279.335-.565.499-1.264.49-2.098Z"/>
      <path class="st0" d="M307.826,363.384c-1.188,0-2.246-.208-3.176-.624-.931-.417-1.664-1.035-2.2-1.856-.538-.82-.807-1.845-.807-3.073,0-1.035.19-1.903.57-2.606.381-.704.897-1.27,1.553-1.697.654-.428,1.4-.752,2.236-.97s1.716-.372,2.637-.461c1.082-.113,1.956-.219,2.618-.321s1.143-.253,1.443-.456c.299-.201.447-.5.447-.896v-.074c0-.767-.24-1.361-.721-1.782-.481-.42-1.161-.629-2.042-.629-.931,0-1.67.204-2.218.611-.55.408-.914.92-1.092,1.534l-4.776-.388c.242-1.131.718-2.111,1.429-2.939.711-.829,1.631-1.467,2.759-1.916,1.127-.449,2.434-.674,3.921-.674,1.035,0,2.027.122,2.977.364.949.243,1.793.618,2.534,1.128.739.508,1.322,1.161,1.752,1.957.428.796.642,1.749.642,2.856v12.559h-4.898v-2.582h-.144c-.3.582-.7,1.093-1.2,1.534-.501.44-1.103.785-1.807,1.031-.703.246-1.516.37-2.437.37ZM309.306,359.819c.76,0,1.431-.151,2.013-.454s1.038-.713,1.37-1.231c.331-.517.497-1.103.497-1.757v-1.977c-.163.106-.382.2-.661.285s-.592.163-.939.231c-.349.069-.696.129-1.043.182s-.663.099-.946.139c-.606.089-1.135.231-1.588.425-.453.193-.804.454-1.054.782-.251.326-.376.733-.376,1.218,0,.703.257,1.239.77,1.606.514.368,1.167.551,1.959.551Z"/>
      <path class="st0" d="M327.489,338.205v24.828h-5.163v-24.828h5.163Z"/>
      <path class="st0" d="M334.206,342.011c-.768,0-1.424-.257-1.97-.77-.546-.514-.818-1.129-.818-1.849,0-.711.272-1.324.818-1.836.546-.514,1.202-.771,1.97-.771s1.425.257,1.97.771c.546.513.82,1.125.82,1.836,0,.72-.274,1.335-.82,1.849-.545.513-1.202.77-1.97.77ZM331.612,363.032v-18.621h5.163v18.621h-5.163Z"/>
      <path class="st0" d="M350.803,344.411v3.88h-11.214v-3.88h11.214ZM342.135,339.949h5.165v17.361c0,.476.072.846.218,1.109.144.263.349.447.611.551.263.106.568.158.915.158.243,0,.485-.022.728-.067s.428-.079.557-.103l.813,3.842c-.258.081-.622.176-1.09.285-.47.11-1.039.176-1.71.2-1.245.049-2.334-.117-3.267-.497-.933-.379-1.659-.97-2.175-1.77-.518-.8-.772-1.81-.764-3.031v-18.039Z"/>
      <path class="st0" d="M357.348,370.015c-.654,0-1.267-.051-1.836-.151-.57-.101-1.04-.229-1.413-.382l1.164-3.855c.606.185,1.153.286,1.642.303.489.015.914-.097,1.274-.34.36-.242.651-.654.878-1.236l.304-.788-6.68-19.154h5.431l3.855,13.674h.194l3.891-13.674h5.468l-7.237,20.634c-.347,1.002-.818,1.877-1.413,2.624-.593.747-1.343,1.325-2.249,1.734-.904.408-1.996.613-3.273.613Z"/>
    </g>
  </g>
</svg>