<?xml version="1.0" encoding="UTF-8"?>
<svg id="Layer_1" xmlns="http://www.w3.org/2000/svg" xmlns:xlink="http://www.w3.org/1999/xlink" version="1.1" viewBox="0 0 512 512">
  <!-- Generator: Adobe Illustrator 29.2.1, SVG Export Plug-In . SVG Version: 2.1.0 Build 116)  -->
  <defs>
    <style>
      .st0 {
        fill: #111;
      }

      .st1 {
        fill: url(#linear-gradient);
        stroke: #000;
        stroke-miterlimit: 10;
        stroke-width: 9px;
      }
    </style>
    <linearGradient id="linear-gradient" x1="276.519" y1="-2.298" x2="276.519" y2="510.026" gradientUnits="userSpaceOnUse">
      <stop offset=".124" stop-color="#f62233"/>
      <stop offset=".859" stop-color="#ff9800"/>
    </linearGradient>
  </defs>
  <g id="CwdrPf">
    <g>
      <path class="st0" d="M330.217,132.675c1.914,11.494,2.225,51.944-1.603,62.111-3.413,9.063-12.169,11.882-21.18,12.716-66.078-.812-132.471,1.506-198.369-1.183-11.712-2.701-13.64-12.657-14.279-23.104-.733-11.972-1.399-49.467,2.95-59.08,2.916-6.446,8.576-8.453,15.207-9.508,60.668.442,122.25-3.394,182.938-.583,14.873.689,31.319.493,34.338,18.631Z"/>
      <path class="st0" d="M66.519,173.684c7.51.494,8.697,14.671,16.272,10.915,4.724-2.343,2.776-6.882,2.792-10.54.05-10.973-.397-22.218.007-33.145.21-5.677,4.261-12.967-6.534-10.721-7.389,1.537-5.567,8.053-7.241,13.206-4.29,13.205-18.374,6.502-23.128,15.706-.877,1.698-1.551,4.758-1.782,6.675-1.725,14.345-1.42,45.65-.187,60.341,1.063,12.662,7.49,16.642,18.794,20.02,36.201,10.818,76.664,16.207,113.498,25.747,7.603,1.969,14.958,3.706,17.479,12.176,1.654,5.557-.112,10.888.175,16.722.161,3.278,2.415,6.963.044,9.855-3.682,4.49-18.375-2.839-18.403,9.832-.029,12.986,8.774,6.709,15.915,5.993,11.331-1.137,18.904,2.069,29.008,2.795,6.825.49,7.975-2.152,8.168-8.776.373-12.814-10.56-5.052-15.971-10.206-3.363-3.203-1.714-8.618-1.724-12.305-.026-8.787.964-25.087-3.423-32.56-3.229-5.5-11.982-8.047-17.824-9.72-36.968-10.588-76.938-16.397-114.223-26.434-11.886-4.076-12.01-10.882-11.744-22.165.044-1.86.749-3.56.77-5.57.098-9.328-.825-18.532-.737-27.84Z"/>
      <path class="st0" d="M213.854,332.258c-3.186-.576-15.664-.626-18.771-.004-5.253,1.052-5.868,6.979-6.205,11.427-1.035,13.664-.414,28.281-1.394,42.264-1.451,20.684-5.993,43.821-6.352,64.082-.324,18.305,11.06,36.495,31.685,30.126,14.899-4.601,16.35-22.776,15.7-35.758-1.482-29.584-6.109-60.137-7.804-90.096-.381-6.724,2.429-20.362-6.859-22.04Z"/>
    </g>
  </g>
  <path class="st1" d="M418.784,506c-12.55-.02-24.298-7.831-28.738-20.335-14.258-40.162-30.127-67.717-53.037-92.084-20.629-21.222-38.068-38.566-58.683-52.449-.791-.532-1.555-1.101-2.292-1.703-.424-.331-1.083-.789-1.794-1.298-7.83-5.618-20.934-15.02-23.225-31.772-1.283-9.379,1.291-18.628,7.246-26.043.327-.407.665-.805,1.012-1.195,10.165-11.406,25.296-13.747,39.922-15.167,4.034-.395,8.179-.728,12.188-1.051,5.051-.406,9.822-.789,14.223-1.275.227-.025.456-.048.684-.067,25.547-2.241,47.045-14.604,60.534-34.815.098-.146.197-.291.296-.435,17.75-25.626,22.84-59.532,13.618-90.699-8.154-27.553-26.122-48.26-50.594-58.309-.176-.072-.352-.146-.526-.221-22.856-9.888-50.292-9.929-76.961-9.986-12.348.092-24.675.196-36.992.3-38.754.326-78.827.665-118.422.612h-.009c-16.868-.027-30.519-13.718-30.497-30.586.023-16.87,13.717-30.527,30.586-30.505,39.298.052,79.219-.285,117.827-.61,12.383-.105,24.776-.209,37.19-.301.524-.01,1.071,0,1.609.001,30.908.05,65.781.308,99.671,14.896,41.187,17.011,72.414,52.485,85.697,97.374,14.397,48.656,6.236,101.945-21.833,142.608-20.416,30.46-51.952,51.336-88.271,58.935,11.808,10.816,22.381,21.694,31.771,31.356.109.114.219.227.327.342,28.781,30.551,49.23,65.618,66.303,113.708,5.644,15.897-2.668,33.361-18.566,39.005-3.394,1.205-6.861,1.774-10.267,1.769Z"/>
</svg>