<?xml version="1.0" encoding="UTF-8"?>
<svg id="Layer_1" xmlns="http://www.w3.org/2000/svg" version="1.1" viewBox="0 0 512 312">
  <!-- Generator: Adobe Illustrator 29.2.1, SVG Export Plug-In . SVG Version: 2.1.0 Build 116)  -->
  <g id="cgfaQc.tif">
    <g>
      <path d="M302.609.447c.294,16.563-2.367,44.86,16.097,52.953,8.177,3.584,22.983,3.567,29.963-2.537-9.086,2.538-19.735,3.386-28.282-1.334-15.396-8.502-13.28-34.151-13.388-49.085h2.187c-.036,17.126-1.602,47.23,21.565,49.688,19.252,2.043,22.302-8.74,36.927-14.982,6.517-2.782,15.985-3.961,22.446-.513,10.985,5.86-2.827,28.596,11.907,31.93,14.211,3.216,30.233-20.751,46.585-12.207,10.996,5.745.861,15.849-4.894,20.979-6.068,5.409-20.477,12.45-18.975,21.859,1.113,6.973,20.197,7.667,19.687,16.794-.309,5.535-20.558,20.766-24.397,28.268-3.4,6.644-2.905,10.864.277,17.445l-38.001.356-59.628-54.411-76.593,18.877-58.533-53.164-102.474,94.172c-8.375,7.905-15.769,16.899-21.194,27.062-5.876-4.898-13.041-5.831-20.468-6.579-5.102-.514-21.739.774-23.602-5.638-5.284-18.188,23.958-9.476,32.385-10.439,15.979-1.826,2.399-16.129,1.268-23.924-2.027-13.964,16.892-7.023,24.164-9.109,3.697-1.06,3.728-9.01,2.943-12.132-5.126-20.382-54.361-35.284-61.257-56.405-3.454-10.581,3.921-21.539,14.6-13.857,13.06,9.394,22.108,37.555,41.301,42.01,9.529,2.211,14.995-5.622,6.827-11.932-6.023-4.652-21.038-8.305-24.266-14.465-3.027-5.776,4.868-12.243,10.876-10.877,13.105,2.98,24.932,28.721,37.001,29.57,11.324.797,13.375-15.608,12.696-23.704-1.402-16.707-17.956-35.611-16.088-50.438,1.124-8.921,14.583-14.437,20.795-8.327,11.22,11.035,3.261,46.992,22.913,57.465,26.211,13.969,37.852-38.66,59.7-35.582,11.258,1.586-.327,22.753,11.81,23.299,14.469.65,22.092-22.331,37.927-19.629,14.526,2.479,5.226,31.221,8.198,40.751,1.941,6.222,9.247,3.245,13.437,1.247,28.495-13.589,9.882-50.633,6.549-73.452h19.009ZM121.791,9.442c-2.698-3.195-7.955-3.127-11.504-1.335-1.074.543-1.776-.012-1.417,1.835,9.464-3.104,11.383,6.708,12.939,13.733,2.418,10.92,2.535,21.576,7.403,32.053,6.302,13.565,19.866,20.502,33.749,12.647v-1.447c-14.027,6.723-26.375-3.949-31.082-16.788-3.606-9.837-4.84-34.483-10.088-40.699ZM207.393,32.033c-2.335-2.37-9.313.178-11.523,2.389,2.153.769,5.89-1.731,7.681.356,2.736,3.189-.916,12.974,3.276,18.64,4.483,6.059,13.279,2.786,19.008.345v-1.446c-11.101,3.627-16.502,2.306-17.54-9.865-.093-1.086.75-2.318.659-3.572-.088-1.216-.945-6.223-1.561-6.848ZM262.626,76.93c-8.597-9.538,10.63-52.311-18.503-39.943l.372,1.459c8.577-3.277,12.012.792,12.774,9.135.849,9.299-2.937,17.941-.395,27.424,2.752,10.266,12.555,7.038,19.563,3.378,1.171-.611,3.228-.937,2.769-2.688-4.849,2.266-12.085,6.222-16.58,1.235ZM414.468,67.665c-5.831,1.622-15.054,3.149-19.756-1.818-4.192-4.429-1.219-16.98-2.35-23.221-1.941-10.708-21.404-8.051-27.606-2.361l12.054-2.619c16.961.241,9.657,14.051,11.513,25.087,1.887,11.217,19.346,11.774,26.144,4.931ZM33.31,57.682c-1.045-.891-4.743-3.134-5.965-3.122-.722.007-5.303,1.62-4.021,2.863,3.259.026,5.17,2.03,7.344,4.012,9.251,8.437,14.888,22.242,25.546,31.437,6.237,5.382,17.833,13.369,25.595,7.292-12.843.078-23.08-9.675-30.683-19.011-5.584-6.856-11.325-17.934-17.817-23.471ZM415.927,157.512c-6.881-18.067,13.941-27.903,23.051-39.428,3.337-4.221,2.975-5.638-1.602-8.662-7.561-4.996-20.459-4.982-14.502-18.388,4.162-9.365,28.044-20.538,28.092-28.856.014-2.505-4.833-5.576-7.051-6.04-6.283-1.313-14.06,2.655-19.207,6.044,2.838.202,5.892-2.614,8.576-3.12,6.561-1.236,17.127.959,11.476,9.276-6.749,9.933-29.626,18.335-27.323,32.52,1.314,8.095,20.305,9.76,19.522,15.265-.935,6.575-24.197,19.599-26.082,33.055-.672,4.795-1.134,9.693,5.051,8.333ZM110.323,91.039c-13.469,3.099-20.596-10.62-28.49-18.652-5.067-5.156-11.999-12.927-19.757-9.102-.217,1.911.022,1.155,1.07,1.465,17.529,5.194,24.726,30.631,41.702,29.211,1.256-.105,6.016-.83,5.475-2.922ZM56.225,142.905h17.912c.732,0,3.815-1.747,4.021-2.915-2.385-.239-4.567.827-6.942.786-4.278-.073-12.902-3.022-14.991,2.128ZM55.86,172.128c-9.73.475-20.157,0-29.975,0-.473,0-3.086,1.699-2.555,2.919,11.267-2.378,23.587,3.067,34.356-2.199l-.378-1.466c-.673.073-1.226.736-1.447.747Z"/>
      <path d="M100.092,227.285c4.596,43.476,71.448,44.356,103.446,41.271,55.118-5.314,110.476-24.701,158.698-51.141l76.344,35.44c-36.015,20.952-76.085,35.282-116.936,43.86-55.26,11.603-126.738,16.158-180.577-2.982-33.157-11.788-59.677-35.319-44.253-73.376.728-1.796,1.729-4.713,3.278-5.856.311,4.112-.427,8.747,0,12.785Z"/>
      <path d="M266.053,187.835l-77.478-71.615-1.436-.297c-2.125,2.739-5.36,5.869-8.077,8.364-25.752,23.644-82.84,68.386-92.336,100.601-2.704,9.172-2.093,17.466-1.619,26.867-7.13-6.895-13.737-16.944-15.534-26.85-2.823-15.568,4.362-29.446,14.06-41.096,34.044-33.191,69.571-64.833,104.565-97.024l54.914,50.842,75.935-19.563,52.273,47.855c-5.395,4.861-9.961,10.391-12.778,17.164l-39.383-35.74-32.293,29.9,31.827,30.683h-52.64v-20.09Z"/>
      <path d="M388.879,173.589l1.27,2.018,83.133,38.932c6.91,8.153-5.869,33.582-15.314,33.607-8.759.023-4.815-15.266-2.69-20.261,1.506-3.539,3.946-6.52,5.979-9.725-.814-.791-3.051,1.938-3.633,2.572-2.589,2.818-7.212,10.38-7.893,14.03-.532,2.85.19,5.888-.171,8.608-.134,1.009.403,1.272-1.076,1.066l-80.71-38.437c-6.013-7.616,5.087-31.188,14.498-32.869,2.249-.402,4.262.819,6.933-1.045l51.568-1.066c4.789-5.054,11.899-7.441,5.88-15.333,1.48-2.153,4.728-.334,6.577-1.441,2.511-1.503,2.075-12.971,12.407-4.033.962-1.067-3.35-4.334-4.376-4.745,5.034-3.388,19.797-22.237,24.108-23.455,4.881-1.379,10.559,6.173,7.107,10.458l-23.588,21.348c-.951,6.252-5.785,4.846-8.763,8.047-3.206,3.447-2.144,11.869-9.31,10.115l-3.804-4.228-6.59,5.838h-51.543ZM456.879,237.148c1.603,6.12,6.503,2.782,9.085-.778,5.345-7.369,6.38-22.36-4.702-12.004,1.673.794,3.916-1.795,5.003.839,1.332,4.004-3.689,15.395-9.386,11.943Z"/>
      <path d="M344.541,2.168c5.675-5.166,16.614-.553,15.742,8.058-.793,7.825-10.789,18.903-19.279,17.233-7.746-1.524-.86-21.288,3.537-25.291ZM345.013,24.548c5.124-.543,14.065-12.364,12.849-16.828-1.034-3.797-9.145-8.401-11.386-2.898,13.93,2.661,4.294,13.711-1.463,19.726Z"/>
      <path d="M155.91,13.85c3.193-3.066,11.219-1.917,13.979,1.232,4.674,5.333-.39,19.659-5.063,24.115-12.571,11.985-16.563-18.005-8.916-25.347ZM158.58,39.159c7.031-.509,12.596-16.87,9.556-21.595-1.701-2.644-9.551-4.428-11.018-.322l6.646,1.935c2.222,7.131-.685,14.497-5.184,19.982Z"/>
      <rect x="165.16" y="188.93" width="16.815" height="16.803"/>
      <rect x="193.673" y="188.93" width="16.815" height="16.803"/>
      <rect x="165.16" y="217.422" width="16.815" height="16.803"/>
      <rect x="193.673" y="217.422" width="16.815" height="16.803"/>
      <path d="M227.529,18.483c-.913-.812-2.497-3.837-2.306-5.087,1.969-5.482,8.375-5.921,13.405-5.63,21.949,1.272-2.559,18.31-11.099,10.716ZM243.384,11.414c-4.695-.744-14.471-2.747-15.345,3.641l15.345-3.641Z"/>
    </g>
  </g>
</svg>