<svg xmlns="http://www.w3.org/2000/svg" id="Layer_2" version="1.1" viewBox="0 0 500 400"><defs><style>.st0{fill:#5e5e5e}</style></defs><path d="m291.595 95.73 5.082-.792.238-15.199s39.893-17.066 42.094-17.311c4.564-.507 12.479 9.279 14.599 13.767l-6.262 12.823-7.127-8.428h-3.235l-82.287 107.22-92.136-20.822c-16.045-18.683-30.564-43.442-47.023-61.209-1.349-1.456-4.958-6.366-7.154-5.005L42.25 186.338l-31.113 19.247 95.681-122.502 108.333 31.896c7.014 3.403 7.894 13.135 11.903 19.323 2.869-.652 18.971-29.15 23.898-33.553 5.92-5.291 23.17-8.648 26.33-12.54 3.482-4.288.222-17.29 14.314-17.641z"/><path d="M458.903 193.04c-111.196 136.29-277.107-18.964-407.911 12.566C32.477 210.069 15.838 219.303 0 229.908c13.294-14.102 30.535-27.516 47.472-36.394 133.803-70.134 278.875 78.063 411.431-.474"/><path d="m452.33 174.329-3.763.223-2.404-4.151 12.741-14.264c-32.694-.178-21.665 48.401 1.59 10.881l12.742-12.567c1.269 18.746-23.492 45.705-41.387 37.691l-81.025-95.976c-2.428-12.838 15.397-33.241 28.489-28.206l86.003 75.638c5.85 2.867 15.188-11.263 17.454-16.706-.781-3.652-48.504-38.266-51.769-46.314-2.979-7.343 13.161-24.729 17.815-31.532 2.13-3.114 1.925-6.998 4.412-10.452 3.67-5.097 29.664-34.519 33.484-36.902 2.086-1.301 3.521-2.238 6.057-1.326 7.297 2.917 9.221 7.647 5.089 14.76-2.451 4.22-28.094 32.571-32.477 36.262-3.036 2.557-6.724 2.147-8.918 4.032-5.654 4.856-24.093 18.4-17.586 25.337 7.506 8.278 48.928 38.225 50.046 46.386 1.174 8.568-32.434 36.992-36.594 47.189ZM97.059 138.284h8.507v9.412h-8.507zM108.553 138.286h8.507v9.412h-8.507zM97.059 150.008h8.507v9.412h-8.507zM108.553 150.01h8.507v9.412h-8.507zM323.659 131.222h12.76v14.119h-12.76zM340.899 131.224h12.76v14.119h-12.76zM323.659 148.808h12.76v14.119h-12.76zM340.899 148.811h12.76v14.119h-12.76zM100.55 125.28h19.023l-8.67-13.365zM323.713 111.915h28.199L339.06 92.104zM51.534 268.585v49.657h-9.068l-21.603-31.254h-.364v31.254H10.001v-49.657h9.213l21.434 31.23h.436v-31.23zM104.003 285.97h-10.62q-.291-2.06-1.188-3.673c-.897-1.613-1.366-1.992-2.304-2.752s-2.016-1.342-3.237-1.746-2.542-.607-3.965-.607q-3.855 0-6.716 1.904t-4.438 5.527q-1.576 3.625-1.576 8.79 0 5.31 1.588 8.922t4.449 5.455q2.86 1.843 6.619 1.843 2.11 0 3.916-.558a10.1 10.1 0 0 0 3.212-1.636 9.4 9.4 0 0 0 2.34-2.631q.933-1.55 1.297-3.539l10.62.049q-.413 3.418-2.049 6.583-1.637 3.163-4.389 5.65-2.752 2.485-6.546 3.927t-8.572 1.443q-6.643 0-11.869-3.007-5.225-3.005-8.244-8.704-3.018-5.697-3.019-13.795c-.001-8.098 1.018-10.022 3.055-13.822q3.055-5.698 8.292-8.692t11.783-2.995q4.317 0 8.014 1.213c3.697 1.213 4.651 1.985 6.559 3.528q2.86 2.315 4.667 5.661 1.806 3.347 2.316 7.662ZM138.48 282.867q-.291-2.934-2.498-4.559t-5.988-1.624q-2.57 0-4.34.715-1.77.714-2.703 1.975a4.7 4.7 0 0 0-.933 2.862q-.05 1.334.57 2.328.618.994 1.709 1.709 1.09.716 2.522 1.236 1.43.523 3.055.885l4.461 1.067q3.249.728 5.965 1.941 2.715 1.212 4.704 2.982t3.091 4.17c1.103 2.4 1.111 3.435 1.128 5.504q-.025 4.558-2.316 7.893t-6.596 5.163q-4.304 1.831-10.365 1.831-6.013 0-10.462-1.842-4.45-1.844-6.934-5.468-2.486-3.625-2.607-8.983h10.159q.17 2.496 1.443 4.158c1.273 1.662 1.988 1.941 3.419 2.498s3.051.836 4.861.836q2.667 0 4.643-.775 1.977-.777 3.067-2.159 1.092-1.381 1.091-3.176 0-1.673-.982-2.813t-2.861-1.939q-1.88-.8-4.594-1.456l-5.407-1.357q-6.28-1.527-9.917-4.777-3.638-3.249-3.612-8.753-.025-4.51 2.412-7.88t6.705-5.261 9.698-1.892q5.528 0 9.663 1.892 4.133 1.89 6.437 5.261 2.303 3.37 2.376 7.808h-10.062ZM172.085 318.242v-49.657h19.591q5.649 0 9.627 2.146 3.975 2.146 6.073 5.94 2.097 3.795 2.098 8.742c.001 4.947-.711 6.207-2.134 8.728s-3.48 4.485-6.17 5.893q-4.038 2.109-9.76 2.109h-12.487v-8.414h10.789q3.03 0 5.008-1.054 1.976-1.054 2.957-2.934.981-1.878.982-4.327 0-2.474-.982-4.328c-.982-1.854-1.645-2.198-2.97-2.885s-3.006-1.031-5.044-1.031h-7.079v41.073h-10.499ZM219.122 318.242h-11.25l17.143-49.657h13.529l17.118 49.657h-11.25l-12.438-38.309h-.388l-12.463 38.309Zm-.703-19.519h26.574v8.196h-26.574zM272.125 268.585v49.657h-10.499v-49.657zM322.315 268.585v49.657h-9.068l-21.603-31.254h-.364v31.254h-10.499v-49.657h9.214l21.433 31.23h.438v-31.23zM329.077 277.241v-8.656h40.783v8.656h-15.202v41.001H344.28v-41.001h-15.202ZM387.1 268.585v49.657h-10.499v-49.657zM437.289 268.585v49.657h-9.068l-21.603-31.254h-.364v31.254h-10.499v-49.657h9.214l21.433 31.23h.438v-31.23zM478.87 284.636q-.51-1.77-1.431-3.139a9.2 9.2 0 0 0-2.242-2.328 10 10 0 0 0-3.007-1.467q-1.684-.51-3.721-.51-3.807 0-6.68 1.892t-4.473 5.491c-1.601 3.6-1.6 5.331-1.6 8.79s.525 6.401 1.577 8.825q1.575 3.638 4.46 5.54 2.886 1.905 6.814 1.904 3.565 0 6.098-1.274c2.533-1.274 2.982-2.049 3.88-3.601q1.345-2.327 1.345-5.504l2.134.315h-12.802v-7.904h20.78v6.255q0 6.548-2.764 11.238-2.764 4.692-7.614 7.226-4.848 2.534-11.105 2.534-6.982 0-12.269-3.092-5.286-3.09-8.232-8.801-2.945-5.709-2.945-13.566 0-6.036 1.757-10.777c1.757-4.741 2.816-5.84 4.934-8.037a21.4 21.4 0 0 1 7.396-5.019q4.218-1.721 9.14-1.722 4.22 0 7.855 1.225 3.638 1.225 6.462 3.455t4.619 5.298c1.795 3.067 1.964 4.295 2.303 6.752z"/><path d="M129.303 363.032v-24.828h9.795q2.813 0 4.807 1c1.994 1 2.343 1.607 3.043 2.824q1.049 1.825 1.049 4.285 0 2.474-1.067 4.249c-1.067 1.775-1.74 2.091-3.085 2.721q-2.02.946-4.88.946h-6.559v-4.219h5.71q1.503 0 2.498-.413c.995-.413 1.158-.686 1.485-1.236s.491-1.232.491-2.049q0-1.237-.491-2.085c-.491-.848-.824-.996-1.491-1.29q-1-.443-2.516-.443h-3.539v20.537h-5.249Zm13.409-11.299 6.17 11.299h-5.795l-6.038-11.299h5.662ZM159.708 363.396q-2.825 0-4.88-1.207-2.055-1.205-3.17-3.37-1.115-2.163-1.115-5.024 0-2.887 1.115-5.049 1.115-2.164 3.17-3.37 2.055-1.207 4.88-1.207c2.825 0 3.51.403 4.879 1.207q2.055 1.206 3.171 3.37t1.115 5.049q0 2.861-1.115 5.024-1.115 2.165-3.171 3.37-2.055 1.207-4.879 1.207m.024-4q1.285 0 2.145-.733c.86-.733 1.008-1.159 1.303-2.007q.443-1.272.443-2.896c0-1.624-.148-2.049-.443-2.898q-.442-1.274-1.303-2.013c-.861-.739-1.289-.739-2.145-.739q-1.298 0-2.176.739-.88.74-1.322 2.013c-.442 1.273-.442 1.814-.442 2.898s.147 2.049.442 2.896q.443 1.273 1.322 2.007.879.733 2.176.733M177.407 338.205v24.828h-5.165v-24.828zM186.694 338.205v24.828h-5.165v-24.828zM221.644 350.618q0 4.061-1.534 6.911c-1.534 2.85-2.412 3.348-4.17 4.347q-2.637 1.496-5.922 1.496-3.309 0-5.94-1.503t-4.158-4.352c-1.527-2.849-1.527-4.198-1.527-6.898s.509-5.011 1.527-6.909 2.405-3.348 4.158-4.347q2.631-1.496 5.94-1.497 3.286 0 5.922 1.497 2.637 1.498 4.17 4.347c1.533 2.849 1.534 4.202 1.534 6.909Zm-5.322 0q0-2.63-.782-4.437c-.782-1.807-1.255-2.117-2.2-2.739s-2.053-.933-3.322-.933-2.376.311-3.321.933q-1.419.933-2.2 2.739-.783 1.807-.782 4.437c.001 2.63.26 3.234.782 4.437q.781 1.806 2.2 2.741 1.417.933 3.321.933c1.904 0 2.377-.311 3.322-.933s1.679-1.536 2.2-2.741q.782-1.805.782-4.437M230.591 352.267v10.766h-5.165v-18.621h4.922v3.285h.218a5.23 5.23 0 0 1 2.073-2.577q1.454-.95 3.528-.952 1.94 0 3.382.849 1.442.85 2.243 2.418.8 1.57.8 3.741v11.856h-5.165v-10.935q.012-1.71-.872-2.673-.885-.964-2.437-.964-1.042 0-1.836.449c-.794.449-.942.733-1.237 1.303q-.442.854-.454 2.054ZM277.483 350.618q0 4.061-1.534 6.911c-1.534 2.85-2.411 3.348-4.17 4.347q-2.635 1.496-5.922 1.496-3.309 0-5.94-1.503t-4.158-4.352c-1.527-2.849-1.527-4.198-1.527-6.898s.509-5.011 1.527-6.909 2.405-3.348 4.158-4.347q2.631-1.496 5.94-1.497 3.286 0 5.922 1.497 2.638 1.498 4.17 4.347c1.532 2.849 1.534 4.202 1.534 6.909Zm-5.322 0q0-2.63-.782-4.437-.781-1.806-2.2-2.739-1.418-.933-3.322-.933c-1.904 0-2.376.311-3.321.933q-1.419.933-2.2 2.739-.783 1.807-.782 4.437c.001 2.63.26 3.234.782 4.437q.781 1.806 2.2 2.741 1.418.933 3.321.933c1.903 0 2.377-.311 3.322-.933q1.419-.933 2.2-2.741.782-1.805.782-4.437m-8.123 3.782h4.463l2.242 2.885 2.206 2.57 4.159 5.213h-4.898l-2.862-3.516-1.467-2.085zM293.231 355.103v-10.692h5.165v18.621h-4.959v-3.382h-.193q-.631 1.637-2.092 2.631c-1.461.994-2.16.995-3.558.995q-1.868 0-3.285-.849-1.42-.85-2.213-2.413-.794-1.565-.806-3.746v-11.856h5.163v10.935q.012 1.649.886 2.606.872.958 2.339.958.933 0 1.746-.431.81-.431 1.315-1.279.503-.847.49-2.098ZM307.826 363.384q-1.781 0-3.176-.624-1.396-.625-2.2-1.856-.807-1.23-.807-3.073 0-1.552.57-2.606a4.6 4.6 0 0 1 1.553-1.697q.981-.642 2.236-.97c1.255-.328 1.716-.372 2.637-.461q1.624-.169 2.618-.321c.994-.152 1.143-.253 1.443-.456q.448-.302.447-.896v-.074q0-1.15-.721-1.782-.721-.63-2.042-.629-1.396 0-2.218.611-.825.613-1.092 1.534l-4.776-.388q.363-1.697 1.429-2.939 1.067-1.243 2.759-1.916 1.69-.674 3.921-.674 1.552 0 2.977.364a7.9 7.9 0 0 1 2.534 1.128 5.5 5.5 0 0 1 1.752 1.957q.642 1.195.642 2.856v12.559h-4.898v-2.582h-.144a5.2 5.2 0 0 1-1.2 1.534 5.4 5.4 0 0 1-1.807 1.031q-1.055.37-2.437.37m1.48-3.565q1.14 0 2.013-.454c.873-.454 1.038-.713 1.37-1.231a3.2 3.2 0 0 0 .497-1.757V354.4q-.243.158-.661.285a8 8 0 0 1-.939.231q-.523.103-1.043.182c-.52.079-.663.099-.946.139a6.4 6.4 0 0 0-1.588.425q-.68.29-1.054.782-.376.49-.376 1.218 0 1.055.77 1.606.771.552 1.959.551ZM327.489 338.205v24.828h-5.163v-24.828zM334.206 342.011a2.77 2.77 0 0 1-1.97-.77q-.818-.77-.818-1.849 0-1.067.818-1.836.818-.771 1.97-.771c1.152 0 1.425.257 1.97.771q.82.77.82 1.836 0 1.079-.82 1.849-.818.77-1.97.77m-2.594 21.021v-18.621h5.163v18.621zM350.803 344.411v3.88h-11.214v-3.88zm-8.668-4.462h5.165v17.361q0 .714.218 1.109.217.395.611.551.394.159.915.158.364 0 .728-.067l.557-.103.813 3.842a16 16 0 0 1-1.09.285q-.704.165-1.71.2-1.868.073-3.267-.497-1.4-.57-2.175-1.77-.776-1.2-.764-3.031v-18.039ZM357.348 370.015q-.982 0-1.836-.151-.854-.152-1.413-.382l1.164-3.855q.909.278 1.642.303.734.024 1.274-.34.539-.363.878-1.236l.304-.788-6.68-19.154h5.431l3.855 13.674h.194l3.891-13.674h5.468l-7.237 20.634q-.52 1.503-1.413 2.624a5.95 5.95 0 0 1-2.249 1.734q-1.357.613-3.273.613Z" class="st0"/></svg>