<svg xmlns="http://www.w3.org/2000/svg" viewBox="0 0 160 160"><path d="M88.211 141.156c22.868 1.06 67.461-14.303 41.483-41.43 79.159 34.843-32.901 71.237-68.87 57.177-2.068-2.97-1.747-57.898-1.224-66.369 1.49-24.155 2.487-24.274.302-49.376-.556-6.393-1.397-34.231.922-37.549l3.12-2.066c7.333.506 31.728-3.896 34.276 3.889-.012 10.676 1.453 22.892.382 33.361-.937 9.158-5.79 15.747-5.444 25.942.286 8.436 4.614 13.032 5.505 20.626.64 5.455.497 43.481-.751 46.427-2.015 4.76-8.397 4.515-9.7 9.369ZM51.902 94.509l-.34 17.803c-17.622 4.17-40.862 18.58-22.983 36.623-53.468-18.348-13.587-53.581 23.323-54.425Z"/><path d="M122.023 73.873c4.959 24.596-20.888-4.941-19.639-7.877L120.63 47.86l1.294 10.378c11.803 2.039 17.598-6.965 25.89-12.983-.011 13.96-11.4 29.535-25.791 28.617ZM31.198 53.032l2.565-10.345C23.03 41.788 13.428 47.912 6.53 55.613c-1.459-13.134 9.854-28.205 24.373-28.771l4.126-10.087 14.112 19.074z"/></svg>